<svg width="131" height="25" viewBox="0 0 131 25" fill="none" xmlns="http://www.w3.org/2000/svg">
<path fill-rule="evenodd" clip-rule="evenodd" d="M54.2945 23.5688H50.9849L50.9848 23.5682C50.8344 22.5142 50.684 21.4602 50.5336 20.2556C50.3079 20.4815 50.2327 20.6321 50.1575 20.7827C47.8257 25.3007 40.5294 24.9995 38.2728 20.6321C36.3171 16.8671 36.3171 12.9515 38.1976 9.11125C40.4542 4.59328 47.9009 4.44268 50.0823 8.35826C50.0979 8.37395 50.1104 8.38965 50.1222 8.40467L50.1223 8.40472C50.1673 8.46171 50.2046 8.50885 50.3831 8.50885V0H54.2945V23.5688ZM50.6088 14.6834C50.5712 14.4575 50.5383 14.2316 50.5054 14.0057C50.4066 13.328 50.3079 12.6503 50.0823 11.9726C49.4053 9.93955 47.8257 8.96065 45.5691 8.96065C43.463 9.03595 42.0338 10.0901 41.432 12.1232C40.9055 13.7045 40.9807 15.3611 41.3568 17.0177C41.8834 19.1261 43.463 20.4062 45.5691 20.5568C47.7505 20.6321 49.5557 19.4273 50.1575 17.3189C50.3113 16.7544 50.3952 16.1549 50.4807 15.5443V15.5443C50.5206 15.259 50.5609 14.9712 50.6088 14.6834ZM116.877 16.34C116.877 18.2225 118.005 19.8038 119.66 20.4062C121.992 21.3098 124.098 20.7074 125.678 18.6743C125.828 18.5237 125.978 18.3731 126.204 18.3731H130.115C129.514 20.5568 128.31 22.0628 126.505 23.0417C124.7 24.0206 122.744 24.2465 120.788 24.0206C115.448 23.5688 112.74 20.6321 112.815 15.2105C112.815 13.7799 112.966 12.3492 113.417 10.9938C114.47 7.75588 116.952 6.02399 120.262 5.57219C121.39 5.42159 122.594 5.42159 123.722 5.64749C127.182 6.24989 129.439 8.43358 130.115 11.8974C130.321 12.8729 130.386 13.8484 130.454 14.8716V14.8718C130.486 15.3492 130.519 15.837 130.567 16.34H116.877ZM126.355 13.1022C126.204 10.2408 124.399 8.73478 121.39 8.81008C119.133 8.88538 116.952 10.8432 117.027 13.1022H126.355ZM60.3121 16.3401H73.9268V16.3398C73.9268 15.4363 73.9268 14.6834 73.8516 14.0058C73.6259 9.56313 71.2189 6.47584 67.1571 5.79815C66.0288 5.57225 64.8253 5.57225 63.697 5.72285C60.2369 6.17465 57.7547 7.98184 56.7016 11.3703C55.8742 13.8552 55.9494 16.3401 56.7016 18.825C57.3033 20.7075 58.4316 22.2888 60.2369 23.1171C63.4713 24.623 66.7057 24.623 69.9402 23.1171C71.8206 22.2135 73.0242 20.6322 73.6259 18.4485H69.6393C69.5244 18.4485 69.3655 18.6243 69.2299 18.7744C69.188 18.8208 69.1483 18.8647 69.1128 18.9003C67.9092 20.6322 65.9536 21.2346 63.6218 20.6322C61.6661 20.1051 60.4626 18.5238 60.3121 16.3401ZM65.427 8.81013C67.9845 8.81013 69.6393 10.3914 69.7897 13.1022H60.3121C60.613 10.3914 62.5687 8.73483 65.427 8.81013ZM35.0385 23.644H32.4058C31.9545 23.644 31.7288 23.4934 31.7288 23.0416C31.6536 22.2133 31.5784 21.385 31.4279 20.4061C31.2023 20.5567 31.1271 20.632 31.0519 20.7073L31.0518 20.7073C28.8705 23.9452 25.0343 24.6229 21.7999 23.7946C19.9946 23.3428 18.7159 22.2133 18.415 20.3308C18.0389 18.373 18.5655 16.6411 20.2203 15.2857C21.499 14.3068 23.0034 13.9303 24.583 13.6291L29.5475 12.7255C30.4501 12.5749 31.1271 12.1231 31.1271 11.0689C31.1271 10.0901 30.6005 9.26176 29.6227 8.96056C28.1183 8.50876 26.6139 8.50876 25.1847 9.03586C24.1317 9.41236 23.5299 10.1654 23.229 11.2195L23.0034 12.1231H18.8663C19.1672 9.26176 20.5964 7.15337 23.229 6.17448C25.9369 5.27088 28.72 5.34618 31.4279 6.17448C33.6093 6.85217 34.9632 8.50876 35.0385 10.7678C35.0885 13.5708 35.072 16.407 35.0553 19.2766C35.0469 20.7239 35.0385 22.1797 35.0385 23.644ZM31.1271 15.0598C29.6979 15.361 28.344 15.6622 26.9901 15.9634L26.99 15.9634C26.7433 16.034 26.4967 16.1004 26.2509 16.1666C25.4477 16.3828 24.6548 16.5964 23.906 16.9423C23.0034 17.3188 22.7025 18.1471 22.853 19.126C22.9282 19.9543 23.3795 20.4814 24.2069 20.7826C27.667 21.9874 31.6536 18.6742 31.1271 15.0598ZM111.612 16.566H107.475C107.452 16.6344 107.429 16.7097 107.404 16.792L107.404 16.7921C107.347 16.9814 107.279 17.2072 107.174 17.4696C106.572 19.578 105.293 20.6322 103.112 20.7075C101.006 20.7828 99.2756 19.7286 98.5987 17.7708C97.9969 15.813 97.9969 13.8552 98.7491 11.8974C99.5013 10.0149 101.307 8.96074 103.413 9.11133C105.444 9.18663 106.722 10.3161 107.249 12.4245L107.475 13.1022H111.612C111.461 10.7679 110.784 8.73484 108.828 7.30414C106.572 5.64755 104.09 5.42166 101.457 5.72285C97.9217 6.09935 95.0634 8.58424 94.3864 11.9727C94.0855 13.4034 94.0855 14.9847 94.1607 16.4907C94.3864 20.2557 96.5678 22.9665 100.028 23.7195C101.607 24.0207 103.262 24.096 104.842 23.9454C108.904 23.5689 111.612 20.5569 111.612 16.566ZM79.8691 23.5687H75.8073V6.02394H79.1921C79.2754 6.56563 79.3356 7.13038 79.3983 7.71818C79.4488 8.19261 79.501 8.68206 79.5682 9.18652C79.7187 8.96062 79.7939 8.88533 79.8691 8.81003C81.5239 6.09924 84.0814 5.04505 87.2406 5.72274C89.798 6.24984 91.4528 8.13233 91.9042 10.8431C92.0546 11.5961 92.0546 12.3491 92.0546 13.1021V23.644H87.9175V22.6651V13.9304V12.8009C87.6919 10.5419 86.714 9.41242 84.7583 9.11122C82.5018 8.81003 80.8469 9.78892 80.17 11.8973C79.9443 12.7256 79.7939 13.7045 79.7939 14.5328C79.7439 16.2843 79.7603 18.0357 79.777 19.8093V19.8094V19.8096C79.7854 20.7047 79.7939 21.6054 79.7939 22.5145C79.8691 22.891 79.8691 23.1922 79.8691 23.5687ZM15.8028 11.6168C16.0491 11.5594 16.2932 11.5025 16.5346 11.4457C16.9107 7.68069 14.6541 5.3464 10.9684 5.6476C6.45521 5.9488 2.54381 9.18668 1.41553 13.6294C0.813773 15.8883 0.738554 18.2226 1.11465 20.5569C1.7164 23.7948 3.6721 25.3761 6.90653 24.9243C11.3445 24.3219 15.5567 21.7617 16.3841 16.1895C16.4875 15.8273 16.5199 15.4652 16.5544 15.0785C16.5701 14.9025 16.5863 14.7214 16.6098 14.5329C15.4063 14.9094 14.3532 15.2106 13.3002 15.4365C12.6232 15.5871 12.3975 15.9636 12.3223 16.566C11.9462 18.9003 10.5923 20.331 8.26047 20.7828C6.53043 21.1593 5.40214 20.4816 5.2517 18.7497C5.10127 17.1684 5.10127 15.5871 5.32692 14.0812C5.70302 11.4457 7.43306 9.93968 9.99051 9.48788C11.2692 9.26198 12.0214 9.78908 12.3223 11.0692C12.3474 11.2198 12.3725 11.362 12.3975 11.5042C12.4477 11.7887 12.4978 12.0732 12.548 12.4246C13.6463 12.1191 14.7446 11.8633 15.8028 11.6168Z" fill="#351741"/>
</svg>
