<svg width="153" height="30" viewBox="0 0 153 30" fill="none" xmlns="http://www.w3.org/2000/svg">
<path fill-rule="evenodd" clip-rule="evenodd" d="M2.15686 20.056L0.224089 20.3641L0.140056 22.3529H13.8655L13.6414 16.7227L10.8123 16.6386L10.4201 20.3361H6.21847V11.8207H8.0392L8.48738 13.7255H10.3641V8.17925L8.48738 8.12323L8.06721 9.97197H6.24649V1.93277H10.4201L10.5882 5.32212L13.2773 5.40615L13.6134 0H0.112045L0 1.93277L2.15686 2.21288V20.056ZM15.21 20.7283L15.126 22.381V22.409H21.8767L21.9887 20.7563L20.3921 20.4482V10.1961C20.5882 9.944 20.8123 9.66389 21.0364 9.46781C21.4005 9.32776 21.7366 9.24372 22.2128 9.24372C23.6134 9.24372 24.1736 10.1121 24.1736 11.6527V22.3529H29.4397L29.5237 20.7003L27.9271 20.3922V10.8123C27.9271 7.9272 26.1344 6.47062 23.7254 6.47062C22.0728 6.47062 20.7843 7.14289 19.7198 8.26333V7.61908L19.3837 6.6667L14.9579 7.31095V8.99162L16.7227 9.15969V20.4202L15.21 20.7283ZM99.7477 22.381L99.8037 20.7283L101.316 20.4202V9.15969L99.5516 8.99162V7.31095L103.977 6.6667L104.314 7.61908V8.26333C105.378 7.14289 106.666 6.47062 108.319 6.47062C110.728 6.47062 112.521 7.9272 112.521 10.8123V20.3922L114.117 20.7003L114.033 22.3529H108.795V11.6527C108.795 10.1121 108.235 9.24372 106.835 9.24372C106.358 9.24372 106.022 9.32776 105.658 9.46781C105.434 9.66389 105.21 9.944 105.014 10.1961V20.4482L106.61 20.7563L106.498 22.409H99.7477V22.381ZM34.7338 22.605C36.1624 22.605 37.2548 22.3249 37.8711 22.0728L37.703 20.3921H36.1904C35.3501 20.3921 34.9019 19.8599 34.9019 19.0476V9.18768L37.4509 8.90757L37.647 6.94679H34.8739V3.72551L32.2969 3.83755L31.4285 6.83475L29.4117 6.91878L29.3277 8.87956L31.1204 9.15967V19.0196C31.1204 21.7647 32.8571 22.605 34.7338 22.605ZM142.717 22.3809L142.773 20.7563L144.201 20.4201V9.15966L142.521 8.99159V7.31093L147.115 6.66667L147.423 7.7591V8.12325C148.627 7.22689 150.252 6.63866 152.213 6.63866L152.885 7.22689L152.409 11.4846L149.888 11.4006L149.636 9.13165C149.047 9.21568 148.487 9.38375 148.011 9.71988V20.4482L149.608 20.7843L149.495 22.4089H142.717V22.3809ZM76.8346 20.7563L76.7505 22.3809V22.4089H83.5012L83.6133 20.7843L82.0166 20.4482V9.71988C82.4928 9.38375 83.053 9.21568 83.6413 9.13165L83.8934 11.4006L86.4144 11.4846L86.9466 7.22689L86.2743 6.63866C84.3135 6.63866 82.6889 7.22689 81.4844 8.12325V7.7591L81.1763 6.66667L76.5825 7.31093V8.99159L78.2631 9.15966V20.4201L76.8346 20.7563ZM38.9915 22.3809L39.0755 20.7563L40.5041 20.4201V9.15966L38.8234 8.99159V7.31093L43.4173 6.66667L43.7254 7.7591V8.12325C44.9299 7.22689 46.5545 6.63866 48.4873 6.63866L49.1596 7.22689L48.6834 11.4846L46.1624 11.4006L45.9103 9.13165C45.322 9.21568 44.7618 9.38375 44.2856 9.71988V20.4482L45.8823 20.7843L45.7702 22.4089H38.9915V22.3809ZM57.0027 20.2801C54.6778 20.2801 53.5013 18.2073 53.5013 15.5182L61.1763 15.4342L61.5685 14.4258C61.5685 10.2241 60.0279 6.44258 55.9383 6.44258C51.2604 6.44258 49.5517 10.6723 49.5517 14.5378C49.5517 19.0756 51.9046 22.605 55.9943 22.605C58.0951 22.605 59.7758 21.9047 60.9242 20.9804L60.28 19.4958C59.1595 20.028 58.2072 20.2801 57.0027 20.2801ZM58.1511 13.5014L53.4453 13.7255C53.4453 12.633 53.7534 10.3081 54.5097 9.0196C55.0699 8.73949 55.378 8.65546 55.8262 8.65546C57.6749 8.65546 58.0671 11.6246 58.1511 13.5014ZM118.599 15.5182C118.599 18.2073 119.776 20.2801 122.101 20.2801C123.305 20.2801 124.257 20.028 125.378 19.4958L126.022 20.9804C124.874 21.9047 123.193 22.605 121.092 22.605C117.003 22.605 114.65 19.0756 114.65 14.5378C114.65 10.6723 116.358 6.44258 121.036 6.44258C125.126 6.44258 126.666 10.2241 126.666 14.4258L126.274 15.4342L118.599 15.5182ZM118.543 13.7255L123.249 13.5014C123.165 11.6246 122.773 8.65546 120.924 8.65546C120.476 8.65546 120.168 8.73949 119.608 9.0196C118.851 10.3081 118.543 12.633 118.543 13.7255ZM94.7617 20.2801C92.4368 20.2801 91.2603 18.2073 91.2603 15.5182L98.9354 15.4342L99.3275 14.4258C99.3275 10.2241 97.7869 6.44258 93.6973 6.44258C89.0194 6.44258 87.3107 10.6723 87.3107 14.5378C87.3107 19.0756 89.6637 22.605 93.7533 22.605C95.8541 22.605 97.5348 21.9047 98.6833 20.9804L98.039 19.4958C96.9186 20.028 95.9662 20.2801 94.7617 20.2801ZM95.9102 13.5014L91.2043 13.7255C91.1763 12.633 91.5124 10.3081 92.2687 9.0196C92.8289 8.73949 93.1371 8.65546 93.5852 8.65546C95.434 8.65546 95.8261 11.6246 95.9102 13.5014ZM137.255 22.3809L136.862 21.0364C135.826 22.0168 134.818 22.605 133.249 22.605C130.84 22.605 128.683 21.4005 128.683 18.0672V8.76749L126.918 8.59942V7.11483L132.017 6.5266L132.409 7.87113V17.619C132.409 19.3277 133.109 20.224 134.482 20.224C134.874 20.224 135.378 20.168 135.826 20C136.078 19.7479 136.33 19.4397 136.526 19.1316V8.76749L134.706 8.59942V7.11483L139.86 6.5266L140.252 7.87113V20.4201L141.848 20.7282L141.652 22.3809H137.255ZM67.2548 19.944C67.759 20.2241 68.4032 20.3641 69.2155 20.3641C69.9438 20.3641 70.5601 20.2241 71.1483 19.944C71.1636 19.898 71.184 19.845 71.2081 19.7823C71.4042 19.2713 71.8486 18.114 71.8486 14.846C71.8486 11.0364 71.4844 8.90759 69.3836 8.90759C68.8794 8.90759 68.4592 8.96361 67.983 9.13168C67.7309 9.41179 67.4789 9.71991 67.2548 10.056V19.944ZM70.5881 6.47062C74.0895 6.47062 75.49 9.4398 75.49 14.1737C75.49 16.8347 75.434 22.6331 69.7197 22.6331C68.7393 22.6331 67.843 22.409 67.1987 22.0448V28.0952L68.7954 28.4033L68.6833 30H61.9326L62.0167 28.4033L63.5293 28.0952V8.99162L61.7646 8.76753V7.14289L66.3304 6.49863L66.7225 7.84317V8.37538C67.1707 7.81516 68.2632 6.47062 70.5881 6.47062Z" fill="#351741"/>
</svg>
