<svg width="119" height="19" viewBox="0 0 119 19" fill="none" xmlns="http://www.w3.org/2000/svg">
<path d="M0 18.075V16.075L8.8375 3.525H0.7V0H14.95V1.9125L5.95 14.5H14.8125V18.075H0Z" fill="#7E64E3"/>
<path d="M17.7268 0H21.9893V18.075H17.7268V0Z" fill="#7E64E3"/>
<path d="M25.6857 18.075V0H32.5982C33.9149 0 35.1024 0.233333 36.1607 0.7C37.2191 1.16667 38.0524 1.85 38.6607 2.75C39.2774 3.64167 39.5857 4.73333 39.5857 6.025C39.5857 7.81667 39.0024 9.21667 37.8357 10.225C36.6774 11.2333 35.1149 11.7375 33.1482 11.7375H29.9607V18.075H25.6857ZM29.9232 8.5125H33.0232C33.7816 8.5125 34.4066 8.24583 34.8982 7.7125C35.3982 7.17083 35.6482 6.53333 35.6482 5.8C35.6482 5.04167 35.3816 4.42083 34.8482 3.9375C34.3232 3.44583 33.7024 3.2 32.9857 3.2H29.9232V8.5125Z" fill="#7E64E3"/>
<path d="M47.2678 18.075V0H54.1553C56.6053 0 58.4053 0.4125 59.5553 1.2375C60.7053 2.05417 61.2803 3.22917 61.2803 4.7625C61.2803 5.62917 61.0595 6.3875 60.6178 7.0375C60.1845 7.6875 59.397 8.275 58.2553 8.8C59.2803 9.08333 60.0387 9.475 60.5303 9.975C61.022 10.4667 61.3387 10.9958 61.4803 11.5625C61.6303 12.1292 61.7053 12.6625 61.7053 13.1625C61.7053 14.8375 61.1428 16.075 60.0178 16.875C58.8928 17.675 57.0553 18.075 54.5053 18.075H47.2678ZM51.5303 7.2625H54.7928C55.4595 7.2625 56.022 7.09583 56.4803 6.7625C56.947 6.42083 57.1803 5.93333 57.1803 5.3C57.1803 4.64167 56.9345 4.13333 56.4428 3.775C55.9512 3.41667 55.3345 3.2375 54.5928 3.2375H51.5303V7.2625ZM51.5303 14.8375H54.6428C55.5428 14.8375 56.222 14.6333 56.6803 14.225C57.147 13.8083 57.3803 13.2958 57.3803 12.6875C57.3803 12.0375 57.1387 11.525 56.6553 11.15C56.172 10.775 55.5512 10.5875 54.7928 10.5875H51.5303V14.8375Z" fill="white"/>
<path d="M62.9231 18.075L69.3481 0H73.7606L80.1981 18.075H75.9731L74.6356 14.225H68.5356L67.1731 18.075H62.9231ZM69.4606 10.5625H73.6606L71.5731 4.0875L69.4606 10.5625Z" fill="white"/>
<path d="M94.4831 0H98.7331V18.075H94.8956L86.8331 6.475V18.075H82.5706V0H86.8331L94.4831 11.025V0Z" fill="white"/>
<path d="M118.344 18.075H113.731L109.331 10.05L106.869 13.1125V18.075H102.444V0H106.869V7.7875L112.781 0H117.594L112.381 6.95L118.344 18.075Z" fill="white"/>
</svg>
