<svg width="116" height="25" viewBox="0 0 116 25" fill="none" xmlns="http://www.w3.org/2000/svg">
<path fill-rule="evenodd" clip-rule="evenodd" d="M0.675712 1.30499V12.1867C0.675712 15.9228 0.675712 19.6589 0.566895 23.4675C0.566895 24.2292 0.893347 24.5556 1.6188 24.5919C2.45306 24.6282 3.25106 24.6282 4.08532 24.5919C4.91959 24.5556 5.10095 24.3017 5.13723 23.5037V22.9597V10.3368V9.7202L5.24604 9.39375C5.27168 9.40229 5.30134 9.41084 5.33266 9.41986L5.33273 9.41988L5.33277 9.41989L5.3328 9.4199L5.33285 9.41991C5.43443 9.44917 5.55335 9.48342 5.60877 9.53884C6.37345 10.3035 7.07152 11.0682 7.79873 11.8648L7.79875 11.8648L7.89393 11.9691C9.23601 13.4925 10.5781 14.9797 11.9564 16.4669C12.5005 17.0654 13.0537 17.6457 13.6069 18.2261C14.16 18.8065 14.7132 19.3868 15.2572 19.9853C15.9465 20.7471 16.6449 21.518 17.3432 22.2889C18.0413 23.0596 18.7395 23.8303 19.4286 24.5919C19.7188 24.9546 20.2991 25.0272 20.7344 24.8458C21.1697 24.6645 21.2422 24.3017 21.2422 23.9027V23.4675V1.88535V1.37753C21.2059 0.688355 20.952 0.434447 20.2628 0.434447H17.9777C16.962 0.434447 16.7081 0.724627 16.7081 1.74026V13.5651V14.617C16.7081 14.7258 16.6719 14.8709 16.6356 15.016C16.6053 15.0008 16.5766 14.9873 16.5492 14.9743C16.4451 14.9251 16.359 14.8845 16.2729 14.7983C15.8195 14.3268 15.3661 13.8462 14.9127 13.3656C14.4593 12.885 14.0058 12.4044 13.5524 11.9328C12.428 10.6996 11.2673 9.50256 10.1066 8.30557C8.54689 6.70964 6.98722 5.07743 5.42756 3.44522L5.42744 3.44509L5.42741 3.44506C4.88332 2.82843 4.33923 2.2118 3.75887 1.63144C3.3236 1.1599 2.85206 0.688355 2.38052 0.253085C1.90898 -0.182185 1.00216 -0.0370946 0.748257 0.543265C0.675712 0.7609 0.675712 1.05108 0.675712 1.30499ZM100.461 1.66775V12.4407C100.461 15.9954 100.461 19.5138 100.498 23.0322C100.498 24.2655 100.715 24.4831 101.985 24.4831H114.426C114.5 24.4831 114.57 24.4873 114.638 24.4914C114.771 24.4994 114.899 24.5071 115.043 24.4831C115.696 24.4106 115.986 24.0841 115.986 23.4312V21.6902C115.986 20.4932 115.805 20.3118 114.608 20.3118H114.245H105.684C105.032 20.3118 105.032 20.3118 105.032 19.6952V14.8709V14.617C105.068 14.3268 105.213 14.1817 105.503 14.1817H106.12H112.903C112.977 14.1817 113.046 14.1859 113.115 14.19C113.248 14.198 113.376 14.2057 113.519 14.1817C113.955 14.1455 114.209 13.9278 114.209 13.5288C114.245 12.622 114.245 11.7152 114.209 10.8084C114.172 10.3369 113.955 10.1918 113.447 10.1555H112.83H105.757C105.032 10.1555 104.995 10.083 104.995 9.39378V5.62145C104.995 5.5484 104.995 5.48019 104.995 5.4165C104.993 4.94353 104.992 4.71975 105.103 4.61554C105.203 4.52197 105.393 4.52481 105.754 4.5302C105.851 4.53164 105.96 4.53327 106.083 4.53327C107.049 4.53327 108.019 4.52925 108.99 4.52523L108.991 4.52523C110.937 4.51716 112.889 4.50907 114.825 4.53327C115.587 4.53327 115.986 4.13428 115.95 3.4451C115.925 3.0353 115.933 2.60947 115.941 2.17827C115.946 1.96065 115.95 1.74165 115.95 1.52266C115.95 0.615846 115.732 0.361939 114.825 0.361939H101.767C100.751 0.361939 100.461 0.652119 100.461 1.66775ZM45.2184 24.5194H44.1665C43.5498 24.5557 43.0783 24.338 42.8244 23.7577C42.5705 23.2136 42.3166 22.7058 42.0627 22.198C41.9538 21.944 41.836 21.6901 41.7181 21.4362C41.6002 21.1823 41.4823 20.9284 41.3735 20.6745C41.1921 20.2392 40.8657 20.0579 40.4304 20.0216H39.9951C39.0898 20.0216 38.1804 20.0256 37.2697 20.0296H37.2696H37.2695H37.2693H37.2692H37.269H37.2689C35.4433 20.0377 33.6124 20.0458 31.7976 20.0216C30.9996 20.0216 30.5643 20.3118 30.2741 21.0372C30.1109 21.4725 29.9114 21.8896 29.7119 22.3068C29.5124 22.7239 29.3129 23.141 29.1497 23.5763C28.8958 24.1929 28.4242 24.4831 27.8076 24.5194C26.9733 24.5557 26.1028 24.5557 25.2322 24.5194C24.4342 24.4831 24.1803 24.0479 24.5431 23.3587C24.9965 22.3793 25.4589 21.4 25.9214 20.4206C26.3839 19.4412 26.8464 18.4619 27.2998 17.4825C28.0252 15.8865 28.7507 14.2906 29.4761 12.7308L29.4762 12.7307C30.2741 11.0622 31.0721 9.39373 31.8701 7.68897C32.3959 6.56484 32.9126 5.44072 33.4294 4.3166L33.4294 4.31651L33.4298 4.31572L33.4304 4.31431C33.9471 3.1903 34.4638 2.06629 34.9895 0.942288C35.0077 0.887879 35.0349 0.83347 35.0621 0.779062C35.0893 0.724653 35.1165 0.670244 35.1346 0.615836C35.6424 -0.182159 36.2953 -0.218431 36.8032 0.615836C37.1659 1.23247 37.4561 1.8491 37.7462 2.502C38.0364 3.11864 38.3085 3.7262 38.5805 4.33376C38.8525 4.94133 39.1246 5.54889 39.4148 6.16552C40.2128 7.94287 41.047 9.72023 41.8813 11.4976L43.5136 14.9797L45.7987 19.9853C46.234 20.9647 46.7055 21.944 47.1771 22.9234C47.2133 23.014 47.2586 23.1047 47.304 23.1953L47.304 23.1954C47.3494 23.2861 47.3947 23.3768 47.431 23.4675C47.6849 24.0478 47.4673 24.4106 46.8144 24.5194C46.5967 24.5436 46.3791 24.5355 46.1614 24.5275C46.0526 24.5234 45.9438 24.5194 45.835 24.5194H45.2184ZM35.8238 16.2855H38.3629C38.5805 16.2855 38.8344 16.2493 39.052 16.1767C39.2334 16.1405 39.3422 15.9954 39.2334 15.7777C38.9795 15.3062 38.7619 14.8346 38.5442 14.3631C38.1815 13.5651 37.8188 12.7762 37.4561 11.9873C37.0933 11.1983 36.7306 10.4094 36.3679 9.61141C36.2591 9.3575 36.0777 8.99478 35.8601 8.9585C35.608 8.9305 35.529 9.18353 35.4559 9.41719C35.4344 9.4862 35.4133 9.55352 35.3885 9.61141L33.5386 13.6377C33.4042 13.9363 33.276 14.2349 33.1489 14.531L33.1489 14.531L33.1488 14.5311C32.9671 14.9543 32.7876 15.3723 32.5955 15.7777C32.4867 15.9954 32.523 16.1042 32.7406 16.1405C32.9583 16.1767 33.2122 16.213 33.4298 16.213C34.2278 16.2855 35.0258 16.2855 35.8238 16.2855ZM78.0449 0.398212H76.7028C76.4852 0.380075 76.2675 0.380075 76.0499 0.380075C75.8323 0.380075 75.6146 0.380075 75.397 0.361939C74.3451 0.361939 74.0187 0.942299 74.4902 1.84911C74.7221 2.2614 74.9174 2.69199 75.1151 3.12789L75.1153 3.12839L75.1155 3.12868C75.196 3.30611 75.2768 3.48442 75.3607 3.66273C76.068 5.18614 76.7663 6.70955 77.4645 8.23296L77.4645 8.23306C78.1628 9.75651 78.861 11.28 79.5683 12.8034C80.4389 14.7258 81.3457 16.6483 82.2525 18.5707C83.1229 20.4203 83.957 22.2336 84.7911 24.0469L84.7914 24.0474L84.7915 24.0476L84.7916 24.0479C84.9004 24.2655 85.0455 24.5194 85.2269 24.7008C85.5896 25.0998 86.0248 25.0998 86.3513 24.7008C86.6052 24.3743 86.7866 24.0116 86.9679 23.6489C87.7659 21.9803 88.5276 20.3118 89.2894 18.6433C89.6702 17.809 90.0602 16.9838 90.4501 16.1586L90.4508 16.1571C90.8405 15.3324 91.2302 14.5077 91.6108 13.6739C92.3 12.1505 92.9892 10.627 93.6783 9.13988C94.1318 8.16042 94.5943 7.18096 95.0568 6.2015C95.5193 5.22224 95.9817 4.24299 96.435 3.26374C96.5426 3.03514 96.6452 2.80155 96.7484 2.56668L96.7486 2.56604C96.9236 2.16756 97.1003 1.76539 97.3056 1.37757C97.4507 1.12366 97.3781 0.942299 97.1968 0.760936C97.0154 0.543302 96.7978 0.434484 96.5076 0.434484H93.4244C92.9529 0.434484 92.699 0.652119 92.5176 1.01484L91.9735 2.10302C91.4657 3.24572 90.9487 4.38843 90.4318 5.53114C89.915 6.6736 89.3981 7.81606 88.8904 8.95851C88.5094 9.82923 88.1194 10.709 87.7294 11.5888L87.7293 11.589L87.7292 11.5892C87.3394 12.4685 86.9497 13.3478 86.5689 14.218C86.4601 14.5445 86.315 14.8709 86.1337 15.1611C85.916 15.5601 85.6984 15.5601 85.4808 15.1974C85.4167 15.0907 85.3653 14.9714 85.3116 14.8469L85.3115 14.8468L85.3115 14.8467C85.2739 14.7598 85.2353 14.6703 85.1906 14.5807C84.0664 12.0059 82.9059 9.43111 81.7454 6.85629L81.7447 6.85471L80.4389 3.91664C80.1793 3.33262 79.9069 2.76149 79.6369 2.19557C79.4541 1.81249 79.2725 1.43181 79.0968 1.05112C78.8792 0.579574 78.5527 0.361939 78.0449 0.398212ZM52.5816 14.2905V5.62134V4.93216C52.5816 4.67825 52.4366 4.56943 52.1827 4.56943H51.6386C51.202 4.56943 50.7694 4.56538 50.3382 4.56134L50.3382 4.56134C49.4797 4.55329 48.6266 4.54529 47.7574 4.56943C46.9231 4.60571 46.5241 4.17044 46.5604 3.33617C46.5845 2.90232 46.5766 2.48449 46.5686 2.0614V2.06121V2.06102C46.5645 1.84751 46.5604 1.63266 46.5604 1.41373C46.5604 0.760825 46.8506 0.470645 47.5035 0.3981C47.6244 0.373919 47.7453 0.381979 47.8662 0.39004C47.9267 0.39407 47.9871 0.3981 48.0476 0.3981H61.6498H62.1939C62.8105 0.470645 62.9918 0.68828 63.0281 1.30491V3.77144C63.0281 4.38807 62.8468 4.56943 62.2301 4.56943C61.6484 4.59367 61.0505 4.58552 60.4581 4.57744H60.4581C60.1639 4.57343 59.8711 4.56943 59.5822 4.56943H57.7323C57.2245 4.56943 57.1883 4.60571 57.152 5.11352V5.73015V22.9958V23.3586C57.1157 24.2291 56.8618 24.5193 55.9913 24.5556H53.7786C52.6905 24.5193 52.5816 24.1203 52.5816 23.3586V14.2905ZM66.6917 1.81278V12.4406V23.4674C66.6917 24.2292 66.9093 24.4468 67.671 24.4831H69.6297C71.0444 24.4831 71.262 24.2654 71.262 22.8871V1.9216C71.262 1.85035 71.2659 1.77521 71.2698 1.69873C71.278 1.5416 71.2864 1.37881 71.262 1.23242C71.1894 0.724606 70.8993 0.398154 70.4277 0.361881C69.4121 0.325609 68.4327 0.325609 67.4171 0.361881C66.9093 0.398154 66.7279 0.688333 66.6917 1.19615V1.81278Z" fill="#351741"/>
</svg>
