<svg width="78" height="30" viewBox="0 0 78 30" fill="none" xmlns="http://www.w3.org/2000/svg">
<path fill-rule="evenodd" clip-rule="evenodd" d="M69.9324 20.565C70.8869 20.5706 71.3899 19.6781 71.5851 18.5559H76.81C76.1528 26.3849 65.1505 26.4478 64.1884 20.2387V24.2812H56.6021V20.1946C55.94 24.1912 53.6176 24.7415 52.5993 24.7387C51.7449 24.7359 49.6521 24.045 48.8776 21.9393L48.9519 24.2324C48.9681 25.6556 49.8921 26.5574 50.8733 26.6868V29.9971L42.021 29.9999V26.6868C42.764 26.6662 43.9547 25.9481 43.968 24.3506V18.3506C43.6965 19.859 42.5611 24.7368 37.1161 24.7368C31.7207 24.7368 30.5005 19.5853 30.269 18.8306C29.2612 24.4424 25.469 24.7518 23.8039 24.7312C20.8128 24.6937 19.0219 22.6687 18.9781 22.6237C17.1787 20.8256 16.8329 18.1021 16.9053 15.165C16.9053 14.5743 17.0587 13.4259 17.113 12.8615C15.1773 14.9081 13.3836 14.6522 11.2546 14.7309L9.46568 14.7272V18.0834C9.46378 19.4334 9.96769 20.2396 11.4985 20.2509V24.2868H0.98584V20.3353C2.51663 20.324 3.0415 19.4446 3.0396 18.0947V6.12749C3.0396 5.84155 2.96815 3.99093 0.991555 3.97687V0H12.3368C14.4743 0 15.9946 0.641249 17.0187 1.43437C18.9105 2.90156 19.2887 5.42249 19.442 7.28905C22.3321 4.81405 29.1802 4.2628 30.3271 11.6672C31.5655 6.0253 35.7902 5.59874 36.7789 5.59405C38.5555 5.58843 41.5885 6.64405 42.5725 9.49873V5.97936H48.7871V8.24342C49.2444 6.53436 50.778 5.60624 52.3326 5.59686C53.832 5.58749 56.9021 7.22623 57.6899 13.4634V5.15811C57.6832 3.96093 56.9393 3.34218 55.7219 3.34874L55.7181 0.0365624H62.95V13.469C63.6092 7.51873 66.9832 5.61468 69.8238 5.61468C72.7073 5.61468 74.7525 7.19717 75.7994 9.22217C77.1406 11.8125 77.0453 14.5509 76.9644 16.3256L68.1654 16.3275C68.134 16.6678 68.1664 17.2387 68.194 17.7647C68.2683 19.2384 68.7598 20.5715 69.9324 20.565ZM23.9696 20.565C24.9232 20.5706 25.4271 19.6884 25.6223 18.5653L30.2052 18.5634C29.9737 17.4384 29.9461 17.2012 29.9204 16.3265L22.2026 16.3275C22.1712 16.6678 22.2045 17.2387 22.2312 17.7647C22.3055 19.2384 22.797 20.5715 23.9696 20.565ZM35.1986 15.1987C35.1986 18.1837 35.7435 20.5865 37.1123 20.6053C38.5183 20.6231 39.0261 18.1837 39.0261 15.1987C39.0261 12.2128 38.4812 9.81185 37.1114 9.7931C35.7806 9.77435 35.1986 12.2128 35.1986 15.1987ZM23.9382 9.68623C22.7656 9.6806 22.2359 11.0925 22.1616 12.5653C22.1369 13.065 22.1273 13.0875 22.1616 13.4606H25.6395C25.6738 13.0875 25.6652 13.065 25.6395 12.5653C25.5652 11.0925 25.1099 9.6806 23.9382 9.68717V9.68623ZM69.9 9.79592C68.7274 9.78935 68.2349 11.0925 68.1606 12.5653C68.1359 13.065 68.1263 13.0875 68.1606 13.4606H71.6385C71.6728 13.0875 71.6633 13.065 71.6385 12.5653C71.5642 11.0925 71.0717 9.79029 69.9 9.79592ZM49.1167 17.9156C49.1167 19.4175 49.492 20.5575 50.5618 20.5575C51.7573 20.5575 52.4707 18.9637 52.4707 15.2156C52.4707 11.1 51.8258 9.6881 50.7028 9.63935C49.6149 9.59248 49.0596 10.5019 49.1167 12.3797V17.9156ZM9.48283 10.2094H10.9574C12.291 10.1719 12.7578 9.3806 12.7578 7.37155C12.7578 5.54436 12.1053 4.59468 10.9574 4.59468H9.48283V10.2094Z" fill="#351741"/>
</svg>
