<svg width="30" height="31" viewBox="0 0 30 31" fill="none" xmlns="http://www.w3.org/2000/svg">
<circle cx="15" cy="15.333" r="15" fill="white"/>
<path d="M14.9999 28.2744C22.3096 28.2744 28.2352 22.3488 28.2352 15.0391C28.2352 7.72948 22.3096 1.80383 14.9999 1.80383C7.69029 1.80383 1.76465 7.72948 1.76465 15.0391C1.76465 22.3488 7.69029 28.2744 14.9999 28.2744Z" fill="white"/>
<path d="M14.4246 15.0391H28.2353C28.2353 13.8445 28.0761 12.6873 27.7793 11.5864H14.4246V15.0391Z" fill="#D80027"/>
<path d="M14.4246 8.13374H26.2927C25.4825 6.81165 24.4466 5.64307 23.2387 4.68103H14.4246V8.13374Z" fill="#D80027"/>
<path d="M14.9998 28.2744C18.1146 28.2744 20.9777 27.1978 23.2385 25.3972H6.76099C9.02184 27.1978 11.8849 28.2744 14.9998 28.2744Z" fill="#D80027"/>
<path d="M3.7071 21.9444H26.2925C26.943 20.883 27.4474 19.7229 27.7792 18.4917H2.22046C2.55222 19.7229 3.05666 20.883 3.7071 21.9444Z" fill="#D80027"/>
<path d="M7.89548 3.87071H9.1016L7.9797 4.68577L8.40825 6.00459L7.2864 5.18953L6.16456 6.00459L6.53473 4.86527C5.54694 5.68808 4.68117 6.65209 3.9677 7.72621H4.35416L3.64003 8.24503C3.52877 8.43063 3.42206 8.61918 3.3198 8.81052L3.66081 9.8601L3.02459 9.39784C2.86644 9.73291 2.72178 10.0755 2.59175 10.4253L2.96746 11.5817H4.35416L3.23227 12.3968L3.66081 13.7156L2.53896 12.9005L1.86696 13.3888C1.7997 13.9295 1.76465 14.4802 1.76465 15.0391H14.9999C14.9999 7.72952 14.9999 6.86778 14.9999 1.80383C12.3854 1.80383 9.94804 2.56228 7.89548 3.87071ZM8.40825 13.7156L7.2864 12.9005L6.16456 13.7156L6.5931 12.3968L5.4712 11.5817H6.85791L7.2864 10.2629L7.7149 11.5817H9.1016L7.9797 12.3968L8.40825 13.7156ZM7.9797 8.54127L8.40825 9.8601L7.2864 9.04504L6.16456 9.8601L6.5931 8.54127L5.4712 7.72621H6.85791L7.2864 6.40739L7.7149 7.72621H9.1016L7.9797 8.54127ZM13.1557 13.7156L12.0338 12.9005L10.912 13.7156L11.3405 12.3968L10.2186 11.5817H11.6053L12.0338 10.2629L12.4623 11.5817H13.849L12.7271 12.3968L13.1557 13.7156ZM12.7271 8.54127L13.1557 9.8601L12.0338 9.04504L10.912 9.8601L11.3405 8.54127L10.2186 7.72621H11.6053L12.0338 6.40739L12.4623 7.72621H13.849L12.7271 8.54127ZM12.7271 4.68577L13.1557 6.00459L12.0338 5.18953L10.912 6.00459L11.3405 4.68577L10.2186 3.87071H11.6053L12.0338 2.55189L12.4623 3.87071H13.849L12.7271 4.68577Z" fill="#0052B4"/>
</svg>
