<svg width="119" height="19" viewBox="0 0 119 19" fill="none" xmlns="http://www.w3.org/2000/svg">
<path d="M0.237549 19V17L9.07505 4.45005H0.937549V0.925049H15.1875V2.83755L6.18755 15.425H15.05V19H0.237549Z" fill="#7E64E3"/>
<path d="M17.9643 0.925049H22.2268V19H17.9643V0.925049Z" fill="#7E64E3"/>
<path d="M25.9233 19V0.925049H32.8358C34.1525 0.925049 35.34 1.15838 36.3983 1.62505C37.4566 2.09172 38.29 2.77505 38.8983 3.67505C39.515 4.56672 39.8233 5.65838 39.8233 6.95005C39.8233 8.74172 39.24 10.1417 38.0733 11.1501C36.915 12.1584 35.3525 12.6625 33.3858 12.6625H30.1983V19H25.9233ZM30.1608 9.43755H33.2608C34.0191 9.43755 34.6441 9.17088 35.1358 8.63755C35.6358 8.09588 35.8858 7.45838 35.8858 6.72505C35.8858 5.96672 35.6191 5.34588 35.0858 4.86255C34.5608 4.37088 33.94 4.12505 33.2233 4.12505H30.1608V9.43755Z" fill="#7E64E3"/>
<path d="M47.5054 19V0.925049H54.3929C56.8429 0.925049 58.6429 1.33755 59.7929 2.16255C60.9429 2.97922 61.5179 4.15422 61.5179 5.68755C61.5179 6.55422 61.297 7.31255 60.8554 7.96255C60.422 8.61255 59.6345 9.20005 58.4929 9.72505C59.5179 10.0084 60.2762 10.4001 60.7679 10.9001C61.2595 11.3917 61.5762 11.9209 61.7179 12.4875C61.8679 13.0542 61.9429 13.5876 61.9429 14.0876C61.9429 15.7626 61.3804 17.0001 60.2554 17.8001C59.1304 18.6 57.2929 19 54.7429 19H47.5054ZM51.7679 8.18755H55.0304C55.697 8.18755 56.2595 8.02088 56.7179 7.68755C57.1845 7.34588 57.4179 6.85838 57.4179 6.22505C57.4179 5.56672 57.172 5.05838 56.6804 4.70005C56.1887 4.34172 55.572 4.16255 54.8304 4.16255H51.7679V8.18755ZM51.7679 15.7626H54.8804C55.7804 15.7626 56.4595 15.5584 56.9179 15.1501C57.3845 14.7334 57.6179 14.2209 57.6179 13.6125C57.6179 12.9626 57.3762 12.45 56.8929 12.075C56.4095 11.7 55.7887 11.5125 55.0304 11.5125H51.7679V15.7626Z" fill="#351741"/>
<path d="M63.1606 19L69.5856 0.925049H73.9981L80.4356 19H76.2106L74.8731 15.1501H68.7731L67.4106 19H63.1606ZM69.6981 11.4875H73.8981L71.8106 5.01255L69.6981 11.4875Z" fill="#351741"/>
<path d="M94.7206 0.925049H98.9706V19H95.1331L87.0706 7.40005V19H82.8081V0.925049H87.0706L94.7206 11.9501V0.925049Z" fill="#351741"/>
<path d="M118.581 19H113.969L109.569 10.975L107.106 14.0375V19H102.681V0.925049H107.106V8.71255L113.019 0.925049H117.831L112.619 7.87505L118.581 19Z" fill="#351741"/>
</svg>
